<?xml version="1.0" standalone="no"?>
<!DOCTYPE svg PUBLIC "-//W3C//DTD SVG 20010904//EN"
 "http://www.w3.org/TR/2001/REC-SVG-20010904/DTD/svg10.dtd">
<svg version="1.0" xmlns="http://www.w3.org/2000/svg"
 width="1200.000000pt" height="1200.000000pt" viewBox="0 0 1200.000000 1200.000000"
 preserveAspectRatio="xMidYMid meet">
<metadata>
Created by potrace 1.11, written by Peter Selinger 2001-2013
</metadata>
<g transform="translate(0.000000,1200.000000) scale(0.100000,-0.100000)"
fill="#000000" stroke="none">
<path d="M5926 11149 c-116 -27 -246 -131 -296 -237 l-25 -52 -1184 -2 -1185
-3 -590 -1002 -591 -1003 -56 0 c-243 0 -434 -158 -469 -389 -18 -112 9 -236
70 -321 l20 -28 -594 -1010 c-328 -555 -596 -1013 -598 -1018 -2 -5 262 -477
586 -1049 324 -572 591 -1044 594 -1048 2 -5 -3 -16 -11 -25 -26 -30 -64 -115
-76 -170 -15 -72 -14 -137 4 -207 54 -205 235 -344 450 -345 l60 -1 570 -1007
571 -1007 1212 -3 1212 -2 31 -62 c108 -215 382 -308 602 -204 81 39 168 122
208 201 l34 65 1210 0 1211 0 564 1000 565 999 46 1 c188 1 355 104 432 267
31 65 32 74 32 189 l0 121 -43 85 -43 84 597 1054 c515 910 594 1056 586 1075
-6 12 -270 467 -587 1010 l-576 988 35 71 c78 160 69 324 -26 466 -78 117
-203 186 -357 198 l-85 7 -590 1012 -591 1013 -1192 0 -1193 0 -26 52 c-34 67
-120 157 -182 191 -94 51 -232 70 -336 46z m-517 -683 c-9 -9 -2942 -1696
-2944 -1694 -2 2 195 338 437 748 241 410 466 791 499 848 l60 102 976 0 c537
0 974 -2 972 -4z m3734 -874 c280 -480 508 -874 506 -876 -2 -2 -674 385
-1494 861 -819 475 -1501 870 -1515 878 -22 12 108 14 984 12 l1010 -2 509
-873z m-3415 777 c167 -149 434 -156 598 -15 l40 34 1640 -952 1640 -951 0
-105 c0 -124 20 -185 88 -278 47 -63 142 -134 206 -153 l37 -11 7 -692 c3
-380 9 -1238 12 -1906 l7 -1216 -51 -13 c-63 -16 -154 -74 -203 -128 -86 -95
-122 -197 -117 -332 l3 -84 -1235 -709 c-679 -390 -1416 -813 -1637 -940
l-402 -231 -38 33 c-120 106 -323 130 -477 57 -41 -19 -91 -51 -112 -70 l-39
-35 -1640 959 c-1004 587 -1639 964 -1637 971 12 41 1 188 -16 239 -48 137
-156 244 -288 286 l-52 16 -6 1071 c-4 589 -6 1444 -4 1900 l3 830 45 11 c221
57 367 281 332 508 -8 55 -8 74 1 79 47 28 3243 1867 3245 1867 2 1 25 -18 50
-40z m4957 -3419 c268 -459 492 -845 498 -857 8 -19 -56 -138 -484 -895 l-494
-873 -7 590 c-10 828 -14 2885 -6 2877 3 -4 226 -383 493 -842z m-8817 -1762
l-3 -863 -493 870 c-272 478 -494 872 -495 876 -1 4 221 385 493 848 l495 841
3 -854 c1 -470 1 -1243 0 -1718z m2087 -2724 l1470 -859 -1004 -3 c-553 -1
-1008 1 -1012 5 -10 11 -978 1719 -986 1740 -6 15 -2 14 28 -3 19 -11 696
-407 1504 -880z m5219 39 c-257 -455 -478 -845 -491 -865 l-23 -38 -1022 0
c-562 0 -1018 3 -1014 7 14 14 3011 1731 3015 1728 2 -2 -207 -377 -465 -832z"/>
<path d="M5385 8313 c-351 -499 -642 -913 -646 -918 -8 -10 -700 -2937 -696
-2941 27 -25 1992 -1214 2000 -1210 58 25 1973 1207 1975 1219 2 11 -656 2810
-684 2908 -6 20 -1291 1843 -1302 1847 -5 1 -296 -406 -647 -905z m1116 -373
c269 -377 453 -643 452 -655 -2 -19 -895 -2920 -911 -2960 -8 -17 -10 -16 -20
15 -69 216 -912 2943 -912 2952 0 6 145 214 322 462 530 742 600 838 608 829
4 -4 211 -294 461 -643z m-1061 -2658 c282 -909 511 -1655 508 -1657 -10 -10
-1587 960 -1588 976 0 8 124 540 275 1182 151 642 275 1171 275 1175 1 25 68
-187 530 -1676z m1994 457 c145 -613 266 -1123 268 -1133 2 -16 -136 -104
-787 -502 -434 -265 -791 -481 -793 -479 -2 1 227 748 508 1658 280 911 510
1660 511 1664 2 16 34 -117 293 -1208z"/>
</g>
</svg>
