<?xml version="1.0" encoding="utf-8"?>
<!-- Generator: Adobe Illustrator 15.0.0, SVG Export Plug-In . SVG Version: 6.00 Build 0)  -->
<!DOCTYPE svg PUBLIC "-//W3C//DTD SVG 1.1//EN" "http://www.w3.org/Graphics/SVG/1.1/DTD/svg11.dtd">
<svg version="1.1" id="Layer_1" xmlns="http://www.w3.org/2000/svg" xmlns:xlink="http://www.w3.org/1999/xlink" x="0px" y="0px"
	 width="89.5px" height="84.5px" viewBox="0 0 89.5 84.5" enable-background="new 0 0 89.5 84.5" xml:space="preserve">
<polygon fill="#FFFFFF" stroke="#010101" stroke-width="3" stroke-miterlimit="10" points="23.983,77.508 66.065,77.508 
	86.327,41.513 65.773,6.104 24.421,6.104 3.673,41.513 "/>
<path fill="#010101" d="M44.878,78.629l-0.39-0.195L13.073,59.975v-36.58L44.878,4.984L76.83,23.59l0.146,36.529L44.878,78.629z
	 M14.485,59.098L44.83,76.924l30.636-17.682l-0.194-34.824L44.781,6.64L14.437,24.174L14.485,59.098L14.485,59.098z"/>
<g>
	<ellipse fill="#010101" cx="45.024" cy="5.812" rx="3.507" ry="3.507"/>
</g>
<g>
	<circle fill="#010101" cx="45.024" cy="77.849" r="3.507"/>
</g>
<g>
	<ellipse fill="#010101" cx="76.196" cy="23.785" rx="3.507" ry="3.507"/>
</g>
<g>
	<circle fill="#010101" cx="13.804" cy="59.876" r="3.507"/>
</g>
<g>
	<ellipse fill="#010101" cx="13.901" cy="23.639" rx="3.507" ry="3.507"/>
</g>
<g>
	<circle fill="#010101" cx="76.1" cy="60.022" r="3.507"/>
</g>
<g>
	<path fill="#010101" d="M44.968,20.884l7.993,11.41l4.893,20.712l-12.865,7.887l-12.886-7.908l4.851-20.711L44.968,20.884
		 M44.968,17.214L35.013,31.43l-5.294,22.588l15.249,9.365h0.063l15.248-9.365L54.943,31.43L44.968,17.214L44.968,17.214z"/>
</g>
<g>
	<path fill="#010101" d="M44.989,22.086l7.128,10.018L45.01,55.262L37.86,32.104L44.989,22.086 M44.989,18.458L35.54,31.725
		l9.449,30.604h0.063l9.385-30.604L44.989,18.458L44.989,18.458z"/>
</g>
</svg>
